<svg width="27" height="27" viewBox="0 0 27 27" fill="none" xmlns="http://www.w3.org/2000/svg">
<path d="M26.7921 3.28559C26.0171 4.70495 25.1189 5.85817 24.0973 6.74527V7.67672C24.0973 9.89446 23.7627 12.1455 23.0934 14.4297C22.4241 16.714 21.4466 18.7765 20.1608 20.6172C18.8751 22.458 17.2811 23.966 15.3789 25.1414C13.4767 26.3168 11.2927 26.9045 8.82686 26.9045C7.27691 26.9045 5.81504 26.6384 4.44123 26.1062C3.06741 25.5739 1.78167 24.8199 0.583984 23.8441C0.79534 23.8884 1.0067 23.9217 1.21805 23.9439C1.42941 23.966 1.64076 23.9771 1.85212 23.9771C3.12025 23.9771 4.32674 23.711 5.47158 23.1787C6.61643 22.6465 7.64679 21.9368 8.56266 21.0497C7.36498 21.0054 6.31701 20.5507 5.41875 19.6858C4.52048 18.8209 3.89522 17.7009 3.54296 16.3259C3.71909 16.4146 3.88642 16.459 4.04493 16.459H4.5469C5.04007 16.459 5.498 16.3924 5.92072 16.2594C4.68781 15.9045 3.66625 15.1172 2.85606 13.8975C2.04586 12.6777 1.64076 11.2473 1.64076 9.60616V9.53962C2.02825 9.7614 2.41573 9.94991 2.80322 10.1051C3.1907 10.2604 3.61342 10.338 4.07135 10.338C3.36683 9.71704 2.79441 8.91866 2.35409 7.94285C1.91376 6.96704 1.6936 5.90253 1.6936 4.7493C1.6936 3.50736 1.94018 2.37632 2.43335 1.35615C3.77193 3.39648 5.39233 5.0487 7.29453 6.31281C9.19673 7.57692 11.2574 8.27551 13.4767 8.40858C13.371 7.87632 13.3182 7.36624 13.3182 6.87833C13.3182 5.94688 13.4591 5.07087 13.7409 4.25031C14.0227 3.42974 14.4102 2.70898 14.9033 2.08801C15.3965 1.46704 15.9689 0.979138 16.6206 0.624299C17.2723 0.26946 17.968 0.092041 18.7077 0.092041C19.4827 0.092041 20.2048 0.280549 20.8741 0.657565C21.5434 1.03458 22.1247 1.55575 22.6178 2.22107C23.2519 2.08801 23.8507 1.87732 24.4143 1.58902C24.978 1.30071 25.524 0.95696 26.0523 0.557767C25.6296 2.1989 24.837 3.46301 23.6746 4.35011C24.8018 4.12833 25.841 3.77349 26.7921 3.28559Z" fill="#79AC78"/>
</svg>
